<?xml version="1.0" encoding="iso-8859-1"?>
<!-- Generator: Adobe Illustrator 19.0.0, SVG Export Plug-In . SVG Version: 6.00 Build 0)  -->
<svg version="1.1" id="Layer_1" xmlns="http://www.w3.org/2000/svg" xmlns:xlink="http://www.w3.org/1999/xlink" x="0px" y="0px"
	 viewBox="0 0 512.001 512.001" style="enable-background:new 0 0 512.001 512.001;" xml:space="preserve">
<g>
	<g>
		<path d="M452.576,317.219v-26.705c24.454-4.003,43.179-25.272,43.179-50.842s-18.724-46.838-43.179-50.842v-26.452
			c13.411-2.339,23.641-14.058,23.641-28.128C476.217,60.224,415.993,0,341.966,0H170.035C96.008,0,35.784,60.224,35.784,134.251
			c0,14.07,10.23,25.789,23.641,28.128v26.452c-24.454,4.003-43.179,25.272-43.179,50.842s18.724,46.839,43.179,50.842v26.705
			c-24.454,4.003-43.179,25.272-43.179,50.842c0,18.753,10.073,35.193,25.089,44.206c-3.486,4.735-5.551,10.577-5.551,16.895v23.253
			c0,32.856,26.73,59.585,59.585,59.585h321.262c32.856,0,59.585-26.729,59.585-59.585v-23.253c0-6.318-2.066-12.159-5.551-16.895
			c15.015-9.015,25.089-25.454,25.089-44.208C495.755,342.491,477.031,321.221,452.576,317.219z M54.772,134.251
			c0-63.557,51.706-115.264,115.264-115.264h171.932c63.556,0,115.264,51.706,115.264,115.264c0,5.279-4.295,9.573-9.573,9.573
			h-4.573H68.919h-4.573C59.067,143.824,54.772,139.529,54.772,134.251z M78.412,188.143v-25.332h355.176v25.332H78.412z
			 M212.245,207.131l-28.279,28.277l-28.277-28.277H212.245z M35.234,239.671c0-17.943,14.598-32.541,32.541-32.541h1.144h59.919
			l48.417,48.417c1.853,1.854,4.284,2.781,6.713,2.781c2.429,0,4.859-0.927,6.713-2.781l48.417-48.417h203.985h1.144
			c17.943,0,32.541,14.598,32.541,32.541c0,17.943-14.598,32.541-32.541,32.541h-1.144H68.919h-1.144
			C49.832,272.212,35.234,257.615,35.234,239.671z M78.412,316.532v-25.332h355.176v25.332H78.412z M376.389,335.52l-28.277,28.277
			l-28.277-28.277H376.389z M457.23,452.415c0,22.386-18.213,40.598-40.598,40.598H95.369c-22.386,0-40.598-18.211-40.598-40.598
			v-23.253c0-5.279,4.295-9.573,9.573-9.573h3.429h376.452h3.43c5.279,0,9.573,4.295,9.573,9.573V452.415z M444.227,400.601H67.776
			c-17.943,0-32.541-14.597-32.541-32.541c0-17.943,14.598-32.541,32.541-32.541h1.144h224.063l48.417,48.417
			c1.78,1.78,4.195,2.781,6.713,2.781c2.518,0,4.933-1,6.713-2.781l48.417-48.417h39.842h1.144
			c17.943,0,32.541,14.598,32.541,32.541C476.768,386.003,462.169,400.601,444.227,400.601z"/>
	</g>
</g>
<g>
	<g>
		<circle cx="162.938" cy="48.253" r="9.494"/>
	</g>
</g>
<g>
	<g>
		<circle cx="349.065" cy="48.253" r="9.494"/>
	</g>
</g>
<g>
	<g>
		<circle cx="224.989" cy="48.253" r="9.494"/>
	</g>
</g>
<g>
	<g>
		<circle cx="287.027" cy="48.253" r="9.494"/>
	</g>
</g>
<g>
</g>
<g>
</g>
<g>
</g>
<g>
</g>
<g>
</g>
<g>
</g>
<g>
</g>
<g>
</g>
<g>
</g>
<g>
</g>
<g>
</g>
<g>
</g>
<g>
</g>
<g>
</g>
<g>
</g>
</svg>
