<?xml version="1.0" encoding="iso-8859-1"?>
<!-- Generator: Adobe Illustrator 19.0.0, SVG Export Plug-In . SVG Version: 6.00 Build 0)  -->
<svg version="1.1" id="Layer_1" xmlns="http://www.w3.org/2000/svg" xmlns:xlink="http://www.w3.org/1999/xlink" x="0px" y="0px"
	 viewBox="0 0 512 512" style="enable-background:new 0 0 512 512;" xml:space="preserve">
<g>
	<g>
		<path d="M471.411,244.617c18.391-28.164,15.238-66.383-9.471-91.093c-13.724-13.724-31.971-21.282-51.379-21.282
			c-16.674,0-32.483,5.594-45.311,15.868c-5.786-5.056-12.538-9.941-20.821-12.708c-4.687-1.566-9.998-2.327-16.238-2.327
			c-5.193,0-10.506,0.512-15.645,1.007c-4.969,0.48-10.108,0.974-14.943,0.974c-2.91,0-5.482-0.175-7.862-0.533
			c-6.275-0.947-12.916-3.805-19.948-6.83c-10.114-4.351-20.57-8.851-32.246-8.851c-11.673,0-22.129,4.499-32.242,8.851
			c-7.032,3.025-13.673,5.884-19.949,6.83c-2.38,0.359-4.952,0.533-7.862,0.533c-4.837,0-9.975-0.495-14.944-0.974
			c-5.138-0.495-10.452-1.007-15.644-1.007c-6.239,0-11.552,0.76-16.239,2.327c-12.196,4.075-21.362,12.948-29.451,20.775
			c-4.96,4.8-9.643,9.334-14.438,12.282c-5.659,3.48-12.306,6.145-18.733,8.723c-11.3,4.532-22.984,9.218-30.159,18.708
			c-10.384,13.734-9.467,30.437-8.658,45.175c0.066,1.205,0.129,2.385,0.187,3.551H0v7.604c0,60.937,49.576,110.514,110.514,110.514
			h65.384v-15.207h-65.384c-49.993,0-91.118-38.693-95.006-87.703h14.142H217.1h60.845h84.975h22.15h73.139h38.283
			c-3.888,49.01-45.013,87.703-95.005,87.703h-205.31v15.207h205.311c60.937,0,110.513-49.576,110.513-110.514v-7.604H471.411z
			 M121.403,244.617c-10.937,0.001-19.834-8.896-19.834-19.831c0-10.936,8.897-19.834,19.834-19.834
			c10.936,0,19.833,8.897,19.833,19.834C141.236,235.721,132.339,244.617,121.403,244.617z M150.271,244.617
			c0.112-0.161,0.221-0.322,0.329-0.486c0.132,0.161,0.262,0.325,0.394,0.486H150.271z M183.373,244.618
			c-14.846,0-26.929-12.081-26.929-26.93s12.082-26.93,26.931-26.93c11.276,0,21.122,6.946,25.078,17.103l-27.348,15.321
			l-0.001,0.001l3.717,6.633c0.568,1.013,1.165,2.003,1.777,2.982c0.169,0.273,0.343,0.54,0.515,0.81
			c0.541,0.84,1.096,1.669,1.669,2.484c0.096,0.138,0.189,0.278,0.286,0.416c0.681,0.954,1.388,1.886,2.113,2.803
			c0.137,0.173,0.277,0.344,0.416,0.516c0.695,0.864,1.408,1.711,2.141,2.541c0.036,0.042,0.07,0.086,0.106,0.127
			C190.555,243.885,186.997,244.618,183.373,244.618z M275.223,244.121c-0.299,0.167-0.602,0.334-0.907,0.497h-53.588v0.001
			c-3.501-1.874-6.763-4.101-9.761-6.63l-0.045-0.038c-3.24-2.739-6.142-5.811-8.674-9.181l97.986-54.894
			C310.502,199.832,300.228,230.114,275.223,244.121z M351.546,162.53c-0.442,0.615-0.875,1.236-1.296,1.861
			c-0.218,0.323-0.434,0.649-0.647,0.975c-0.426,0.657-0.836,1.319-1.24,1.986c-0.171,0.284-0.35,0.568-0.517,0.854
			c-0.556,0.949-1.092,1.907-1.601,2.875c-0.036,0.066-0.066,0.136-0.101,0.202c-0.471,0.903-0.919,1.815-1.349,2.732
			c-0.149,0.32-0.29,0.643-0.435,0.963c-0.306,0.68-0.604,1.364-0.889,2.051c-0.149,0.361-0.295,0.724-0.439,1.086
			c-0.27,0.681-0.526,1.366-0.774,2.052c-0.123,0.344-0.25,0.685-0.368,1.03c-0.293,0.852-0.568,1.708-0.826,2.567
			c-0.053,0.172-0.112,0.343-0.162,0.515c-0.302,1.027-0.577,2.059-0.833,3.095c-0.078,0.315-0.145,0.633-0.219,0.949
			c-0.17,0.735-0.333,1.469-0.482,2.208c-0.077,0.385-0.149,0.772-0.22,1.158c-0.127,0.69-0.242,1.383-0.349,2.076
			c-0.06,0.384-0.12,0.767-0.172,1.153c-0.107,0.771-0.196,1.543-0.277,2.317c-0.031,0.293-0.07,0.585-0.097,0.879
			c-0.098,1.051-0.174,2.105-0.226,3.159c-0.014,0.275-0.017,0.549-0.026,0.825c-0.03,0.794-0.053,1.588-0.057,2.383
			c-0.003,0.389,0.003,0.778,0.007,1.165c0.007,0.696,0.023,1.391,0.05,2.086c0.016,0.399,0.032,0.798,0.055,1.196
			c0.04,0.727,0.094,1.452,0.155,2.176c0.029,0.348,0.053,0.694,0.087,1.039c0.104,1.051,0.227,2.102,0.377,3.149
			c0.021,0.147,0.05,0.295,0.072,0.444c0.136,0.909,0.288,1.817,0.458,2.723c0.068,0.361,0.147,0.723,0.22,1.084
			c0.143,0.698,0.293,1.397,0.457,2.093c0.091,0.389,0.187,0.779,0.284,1.166c0.175,0.692,0.362,1.381,0.558,2.069
			c0.101,0.357,0.199,0.715,0.307,1.072c0.262,0.871,0.541,1.738,0.836,2.599c0.055,0.158,0.102,0.318,0.156,0.477
			c0.355,1.013,0.737,2.018,1.136,3.018c0.122,0.302,0.253,0.602,0.379,0.903c0.295,0.708,0.598,1.412,0.916,2.112
			c0.161,0.354,0.326,0.705,0.493,1.056c0.314,0.661,0.639,1.318,0.973,1.971c0.172,0.337,0.343,0.672,0.521,1.006
			c0.396,0.744,0.809,1.481,1.233,2.214c0.128,0.222,0.248,0.446,0.379,0.667c0.53,0.894,1.078,1.78,1.648,2.655h-50.487v-0.003
			c21.446-22.225,26.869-56.756,11.015-85.057l-3.716-6.634l-84.716,47.46c-6.657-14.839-21.507-24.836-38.422-24.836
			c-16.66,0-31.091,9.719-37.925,23.784c-6.281-5.937-14.743-9.59-24.048-9.59c-19.322,0-35.042,15.719-35.042,35.042
			c0,7.357,2.284,14.188,6.174,19.831h-47.89c-0.069-1.471-0.151-2.937-0.23-4.385c-0.731-13.308-1.42-25.878,5.603-35.168
			c4.628-6.12,13.886-9.834,23.69-13.766c7.018-2.814,14.276-5.726,21.038-9.884c6.211-3.819,11.721-9.152,17.048-14.31
			c7.262-7.03,14.771-14.299,23.691-17.279c3.152-1.052,6.781-1.542,11.422-1.542c4.462,0,9.185,0.454,14.185,0.937
			c5.327,0.514,10.836,1.044,16.403,1.044c3.678,0,6.991-0.231,10.13-0.704c8.216-1.24,16.082-4.624,23.691-7.899
			c9.098-3.914,17.691-7.613,26.231-7.613c8.541,0,17.136,3.697,26.235,7.614c7.609,3.274,15.476,6.659,23.691,7.898
			c3.139,0.473,6.452,0.704,10.129,0.704c5.567,0,11.075-0.531,16.402-1.044c5.001-0.483,9.725-0.937,14.186-0.937
			c4.639,0,8.268,0.49,11.419,1.542c5.474,1.83,10.381,5.263,14.769,8.995c-0.033,0.042-0.065,0.084-0.099,0.126
			c-0.149,0.182-0.289,0.37-0.436,0.554c-0.56,0.698-1.107,1.401-1.635,2.114C351.982,161.919,351.765,162.226,351.546,162.53z
			 M456.201,239.795l-25.283-25.284l-10.754,10.752l19.357,19.358h-57.92v-0.002l19.357-19.358l-10.754-10.752l-25.279,25.281
			c-0.058-0.076-0.118-0.15-0.175-0.227c-0.287-0.38-0.573-0.761-0.85-1.146c-0.279-0.387-0.547-0.778-0.814-1.169
			c-0.27-0.394-0.535-0.788-0.794-1.187c-0.253-0.394-0.499-0.793-0.743-1.192c-0.247-0.406-0.494-0.812-0.732-1.223
			c-0.231-0.401-0.453-0.806-0.675-1.211c-0.228-0.419-0.455-0.837-0.672-1.261c-0.208-0.403-0.406-0.813-0.603-1.222
			c-0.209-0.432-0.418-0.864-0.613-1.299c-0.187-0.409-0.36-0.821-0.534-1.233c-0.188-0.444-0.376-0.886-0.553-1.333
			c-0.162-0.41-0.315-0.824-0.467-1.239c-0.167-0.454-0.335-0.907-0.491-1.366c-0.14-0.414-0.27-0.829-0.4-1.246
			c-0.147-0.463-0.293-0.928-0.427-1.394c-0.119-0.414-0.227-0.83-0.336-1.247c-0.125-0.473-0.249-0.947-0.362-1.422
			c-0.097-0.413-0.182-0.826-0.271-1.242c-0.103-0.484-0.207-0.966-0.297-1.453c-0.076-0.411-0.142-0.824-0.209-1.236
			c-0.08-0.492-0.161-0.984-0.23-1.477c-0.056-0.409-0.099-0.819-0.147-1.229c-0.058-0.499-0.117-0.998-0.161-1.498
			c-0.036-0.406-0.06-0.812-0.087-1.217c-0.034-0.507-0.07-1.013-0.092-1.52c-0.016-0.401-0.02-0.802-0.027-1.203
			c-0.011-0.513-0.023-1.025-0.021-1.538c0.003-0.396,0.017-0.791,0.028-1.186c0.013-0.519,0.024-1.035,0.052-1.553
			c0.021-0.389,0.056-0.778,0.084-1.166c0.039-0.523,0.074-1.046,0.127-1.567c0.039-0.382,0.09-0.763,0.137-1.145
			c0.064-0.527,0.125-1.053,0.203-1.579c0.056-0.374,0.125-0.747,0.189-1.12c0.09-0.528,0.176-1.058,0.28-1.585
			c0.073-0.367,0.159-0.732,0.239-1.098c0.116-0.529,0.229-1.06,0.359-1.587c0.089-0.357,0.192-0.713,0.287-1.07
			c0.143-0.53,0.282-1.062,0.44-1.59c0.104-0.349,0.223-0.693,0.335-1.04c0.169-0.529,0.336-1.06,0.522-1.586
			c0.12-0.341,0.255-0.677,0.382-1.016c0.197-0.527,0.39-1.053,0.604-1.576c0.135-0.331,0.285-0.657,0.427-0.985
			c0.226-0.523,0.446-1.046,0.688-1.563c0.149-0.322,0.315-0.638,0.472-0.957c0.252-0.518,0.502-1.036,0.771-1.547
			c0.165-0.313,0.347-0.618,0.518-0.929c0.281-0.509,0.558-1.02,0.855-1.522c0.185-0.311,0.385-0.614,0.576-0.923
			c0.305-0.492,0.604-0.987,0.925-1.472c0.206-0.311,0.43-0.613,0.643-0.923c0.325-0.471,0.646-0.947,0.987-1.412
			c0.21-0.284,0.437-0.561,0.652-0.841l25.281,25.281l10.754-10.754l-25.286-25.286c9.971-7.655,22.108-11.813,34.889-11.813
			s24.916,4.159,34.888,11.813l-25.285,25.285l10.754,10.754l25.28-25.281C471.9,190.539,471.903,219.286,456.201,239.795z"/>
	</g>
</g>
<g>
	<g>
		<rect y="377.95" width="512" height="15.207"/>
	</g>
</g>
<g>
</g>
<g>
</g>
<g>
</g>
<g>
</g>
<g>
</g>
<g>
</g>
<g>
</g>
<g>
</g>
<g>
</g>
<g>
</g>
<g>
</g>
<g>
</g>
<g>
</g>
<g>
</g>
<g>
</g>
</svg>
